<svg width="14" height="15" viewBox="0 0 14 15" fill="none" xmlns="http://www.w3.org/2000/svg">
<path id="Vector" d="M0 11.5837V14.5H2.91627L11.5173 5.89895L8.60106 2.98268L0 11.5837ZM13.7726 3.6437C13.8447 3.57175 13.9019 3.48629 13.9409 3.39222C13.9799 3.29814 14 3.19729 14 3.09544C14 2.99359 13.9799 2.89274 13.9409 2.79866C13.9019 2.70458 13.8447 2.61912 13.7726 2.54718L11.9528 0.727426C11.8809 0.655333 11.7954 0.598137 11.7013 0.559112C11.6073 0.520087 11.5064 0.5 11.4046 0.5C11.3027 0.5 11.2019 0.520087 11.1078 0.559112C11.0137 0.598137 10.9282 0.655333 10.8563 0.727426L9.43316 2.15057L12.3494 5.06684L13.7726 3.6437Z" fill="white"/>
</svg>
