<svg width="11" height="11" viewBox="0 0 11 11" fill="none" xmlns="http://www.w3.org/2000/svg">
<path id="Vector" d="M3.46043 5.74594C3.72076 5.40146 3.97046 5.05843 4.23078 4.72553C5.5032 3.10011 6.88585 1.60351 8.48766 0.361654C8.71744 0.183625 8.94589 0.0794133 9.23278 0.106914C9.47584 0.130072 9.72155 0.112703 9.96594 0.111256C10.0842 0.111256 10.1771 0.15323 10.2236 0.2806C10.2701 0.40797 10.2289 0.509287 10.1426 0.596131C8.60587 2.12891 7.36135 3.92802 6.17527 5.77923C5.31592 7.11951 4.51103 8.49887 3.75396 9.91152C3.62247 10.1561 3.41527 10.1706 3.28644 9.94336C2.38592 8.344 1.36985 6.83148 0.363073 5.31172C0.19572 5.05843 0.199705 4.98606 0.401591 4.76895C0.578241 4.57789 0.75622 4.38829 0.93287 4.19723C1.0896 4.02789 1.17593 4.01775 1.35657 4.15526C2.02332 4.66184 2.68875 5.16843 3.3555 5.67501C3.38871 5.70107 3.42324 5.72278 3.46043 5.74738V5.74594Z" fill="#2B3562"/>
</svg>
