<svg width="15" height="15" viewBox="0 0 15 15" fill="none" xmlns="http://www.w3.org/2000/svg">
<rect x="0.677979" y="0.519043" width="13.5464" height="13.5464" rx="3" fill="white"/>
<path d="M9.86209 9.98069C9.73733 10.1054 9.56812 10.1755 9.39168 10.1755C9.21525 10.1755 9.04604 10.1054 8.92128 9.98069L7.45157 8.30087L5.98186 9.98014C5.92027 10.0427 5.8469 10.0925 5.76597 10.1266C5.68504 10.1607 5.59816 10.1785 5.51034 10.1788C5.42252 10.1792 5.33549 10.1622 5.25429 10.1287C5.17308 10.0953 5.09931 10.0461 5.03721 9.98399C4.97511 9.92189 4.92592 9.84811 4.89248 9.7669C4.85903 9.6857 4.842 9.59868 4.84236 9.51086C4.84271 9.42303 4.86046 9.33615 4.89456 9.25522C4.92866 9.1743 4.97845 9.10092 5.04105 9.03933L6.57008 7.29298L5.0405 5.54552C4.9779 5.48393 4.92811 5.41055 4.894 5.32962C4.8599 5.24869 4.84216 5.16181 4.8418 5.07399C4.84144 4.98617 4.85848 4.89915 4.89192 4.81794C4.92536 4.73674 4.97455 4.66296 5.03665 4.60086C5.09875 4.53876 5.17253 4.48957 5.25373 4.45613C5.33494 4.42269 5.42196 4.40565 5.50978 4.40601C5.5976 4.40637 5.68448 4.42411 5.76541 4.45821C5.84634 4.49232 5.91972 4.5421 5.98131 4.60471L7.45157 6.28508L8.92128 4.60471C8.98287 4.5421 9.05624 4.49232 9.13717 4.45821C9.2181 4.42411 9.30498 4.40637 9.3928 4.40601C9.48062 4.40565 9.56765 4.42269 9.64885 4.45613C9.73006 4.48957 9.80384 4.53876 9.86593 4.60086C9.92803 4.66296 9.97722 4.73674 10.0107 4.81794C10.0441 4.89915 10.0611 4.98617 10.0608 5.07399C10.0604 5.16181 10.0427 5.24869 10.0086 5.32962C9.97448 5.41055 9.92469 5.48393 9.86209 5.54552L8.33306 7.29298L9.86209 9.03933C9.92394 9.10111 9.97301 9.17449 10.0065 9.25525C10.04 9.33601 10.0572 9.42258 10.0572 9.51001C10.0572 9.59744 10.04 9.68401 10.0065 9.76477C9.97301 9.84553 9.92394 9.91891 9.86209 9.98069Z" fill="#2B3562"/>
</svg>
