<svg width="9" height="11" viewBox="0 0 9 11" fill="none" xmlns="http://www.w3.org/2000/svg">
<path id="Vector" d="M4.36323 0.816772C3.30374 0.818022 2.28799 1.23946 1.53881 1.98864C0.789635 2.73782 0.368198 3.75356 0.366948 4.81306C0.365679 5.67888 0.648497 6.52121 1.17202 7.21083C1.17202 7.21083 1.28101 7.35433 1.29881 7.37504L4.36323 10.9891L7.42911 7.37322C7.4451 7.35397 7.55445 7.21083 7.55445 7.21083L7.55481 7.20974C8.07807 6.52042 8.36076 5.67848 8.35952 4.81306C8.35827 3.75356 7.93683 2.73782 7.18765 1.98864C6.43848 1.23946 5.42273 0.818022 4.36323 0.816772ZM4.36323 6.26625C4.07582 6.26625 3.79486 6.18102 3.55588 6.02135C3.31691 5.86167 3.13065 5.63471 3.02066 5.36917C2.91067 5.10363 2.88189 4.81145 2.93796 4.52955C2.99403 4.24766 3.13244 3.98873 3.33567 3.78549C3.5389 3.58226 3.79784 3.44386 4.07973 3.38779C4.36162 3.33171 4.65381 3.36049 4.91935 3.47048C5.18488 3.58047 5.41184 3.76673 5.57152 4.00571C5.7312 4.24468 5.81643 4.52564 5.81643 4.81306C5.81595 5.19832 5.66269 5.56767 5.39027 5.84009C5.11784 6.11251 4.7485 6.26577 4.36323 6.26625Z" fill="#747680"/>
</svg>
