<svg width="39" height="39" viewBox="0 0 39 39" fill="none" xmlns="http://www.w3.org/2000/svg">
<g filter="url(#filter0_i_404_13)">
<circle cx="19.3025" cy="19.5519" r="19" fill="#F0F4F5"/>
</g>
<g clip-path="url(#clip0_404_13)">
<path d="M28.8026 19.6194C28.7403 19.6939 28.6838 19.7744 28.615 19.8425C27.1715 21.2636 25.7265 22.6836 24.2815 24.1035C24.0546 24.3266 23.93 24.3281 23.7065 24.1095C22.0143 22.4522 20.3298 20.787 18.6254 19.1417C18.2288 18.7591 18.1482 18.3028 18.1176 17.8056C18.1008 17.5289 18.066 17.2534 18.0419 17.0026C17.7114 17.0778 17.3878 17.1463 17.0684 17.2295C17.0199 17.2422 16.9786 17.3178 16.9523 17.3728C16.4972 18.3297 15.7931 19.0223 14.7485 19.339C14.5743 19.3918 14.4921 19.4655 14.4425 19.6385C13.9033 21.5125 13.3528 23.3836 12.8099 25.2566C12.761 25.4254 12.6738 25.5426 12.5164 25.629C12.0377 25.8933 11.5651 26.1685 11.0894 26.4384C10.9305 26.5286 10.7864 26.4991 10.6962 26.3388C10.4074 25.8248 10.1228 25.3082 9.84461 24.7886C9.75635 24.6239 9.80831 24.4816 9.9726 24.3862C10.1312 24.2941 10.2955 24.211 10.4689 24.1174C10.3833 23.9395 10.3008 23.7722 10.2221 23.6034C10.1239 23.3926 10.161 23.2646 10.3562 23.1388C10.5159 23.0358 10.6775 22.9363 10.8537 22.8254C10.7673 22.6472 10.6817 22.4747 10.5992 22.301C10.4888 22.0677 10.5213 21.9517 10.736 21.8075C10.8686 21.7184 10.9996 21.6275 11.1356 21.544C11.2124 21.4968 11.243 21.4482 11.1876 21.3684C11.1841 21.3635 11.1838 21.3564 11.1803 21.3516C10.8922 20.9401 10.9243 20.5171 11.0802 20.0615C11.2426 19.5864 11.3431 19.0915 11.4795 18.6079C11.5085 18.5057 11.4856 18.4458 11.4142 18.3713C10.4903 17.4095 10.2267 16.2759 10.6061 15.0271C10.9851 13.7804 11.8703 13.013 13.1625 12.7296C13.5056 12.6544 13.8739 12.6824 14.2304 12.6798C14.3443 12.6791 14.418 12.666 14.4963 12.5727C15.9768 10.8114 18.7354 11.2711 19.5477 13.4136C19.5878 13.5195 19.6394 13.5671 19.7548 13.5768C20.7275 13.6595 21.6995 13.7509 22.6723 13.8302C22.9168 13.8501 23.1281 13.9313 23.3172 14.0754C23.4146 14.1496 23.5071 14.2308 23.5942 14.3162C25.265 15.9517 26.935 17.5881 28.6043 19.2248C28.6731 19.2922 28.7361 19.3656 28.8014 19.4363V19.6183L28.8026 19.6194ZM23.9446 23.5154C25.3242 22.177 26.6829 20.8589 28.064 19.5187C28.0136 19.4798 27.9555 19.4427 27.9078 19.3959C26.3726 17.8932 24.8344 16.3939 23.308 14.8826C23.0218 14.5992 22.7296 14.4195 22.3028 14.3933C21.2918 14.3311 20.2847 14.2143 19.2753 14.1308C18.7931 14.0912 18.4156 14.4745 18.4599 14.9458C18.5566 15.9768 18.6682 17.0063 18.7534 18.0381C18.7782 18.3387 18.905 18.5566 19.1159 18.7621C20.7027 20.3086 22.2833 21.8607 23.8651 23.4121C23.9083 23.4544 23.9396 23.5083 23.9449 23.5154H23.9446ZM14.0497 13.2777C13.8353 13.287 13.642 13.2762 13.4556 13.3069C12.3166 13.4933 11.5269 14.1192 11.1899 15.1989C10.846 16.3003 11.1158 17.2811 11.9938 18.0729C12.1454 18.2099 12.1886 18.3503 12.1351 18.5408C11.9995 19.0249 11.9021 19.5209 11.7351 19.9938C11.5651 20.4767 11.5697 20.9177 11.8589 21.3478C11.8688 21.3628 11.8757 21.38 11.883 21.3969C11.98 21.6192 11.9445 21.7432 11.7404 21.8768C11.5777 21.9835 11.4122 22.0868 11.2403 22.1965C11.3056 22.3298 11.3637 22.4488 11.4226 22.5679C11.6296 22.986 11.6159 23.037 11.2243 23.2825C11.1108 23.3537 10.9969 23.4248 10.8728 23.5023C10.9572 23.6749 11.0363 23.8373 11.1158 23.9998C11.2449 24.2637 11.212 24.3764 10.9618 24.5243C10.8158 24.6104 10.6699 24.6958 10.5193 24.7841C10.71 25.1248 10.8896 25.4456 11.0714 25.7706C11.4233 25.5684 11.7573 25.3846 12.0805 25.1843C12.1588 25.136 12.2322 25.042 12.2578 24.9548C12.8293 23.0209 13.3948 21.0854 13.958 19.1492C14.0054 18.9867 14.0875 18.8864 14.2644 18.8546C15.228 18.682 15.8718 18.107 16.3112 17.2789C16.3207 17.2605 16.3203 17.2369 16.3261 17.21C16.273 17.1984 16.2313 17.1886 16.1897 17.18C15.7598 17.0909 15.3705 16.9146 15.0198 16.6571C14.8685 16.5459 14.8341 16.3624 14.9315 16.2254C15.0243 16.0948 15.1978 16.0682 15.3602 16.1621C15.4079 16.1898 15.4515 16.2247 15.4981 16.2539C15.8187 16.4564 16.1637 16.5863 16.5461 16.6043C16.9053 15.3153 16.0556 13.7673 14.669 13.4233C14.6427 13.4888 14.6129 13.5547 14.5895 13.6228C14.5292 13.8 14.5774 13.9379 14.7344 14.0365C15.1894 14.3229 15.3548 14.8564 15.1393 15.3415C14.9296 15.8132 14.4077 16.0689 13.9053 15.9461C13.4483 15.8346 13.1044 15.4568 13.0723 15.0323C13.0364 14.5535 13.297 14.1413 13.7513 13.9482C13.8067 13.9246 13.8774 13.8834 13.8946 13.8347C13.9542 13.6644 13.9935 13.4869 14.0501 13.2769L14.0497 13.2777ZM17.2216 16.5979C17.4077 16.5354 17.5785 16.4747 17.7519 16.4212C17.9342 16.3647 17.9881 16.2595 17.9598 16.0682C17.9067 15.7092 17.8761 15.3464 17.8528 14.984C17.8096 14.3031 18.189 13.7763 18.8557 13.5708C18.8836 13.5622 18.9092 13.5465 18.9486 13.5285C18.5891 12.73 17.9919 12.2287 17.115 12.1033C16.3035 11.9872 15.6154 12.253 15.0492 12.8445C16.676 13.5869 17.3932 14.8156 17.222 16.5983L17.2216 16.5979ZM14.1662 15.3775C14.4146 15.3737 14.6293 15.1615 14.6251 14.9234C14.6209 14.6669 14.4161 14.4839 14.1383 14.4887C13.8697 14.4932 13.6886 14.6785 13.6959 14.9413C13.7028 15.1922 13.9068 15.3816 14.1662 15.3775Z" fill="#2B3562" stroke="#2B3562" stroke-width="0.3" stroke-linejoin="round"/>
<path d="M21.657 19.0434C21.5585 18.9562 21.4358 18.8963 21.406 18.8068C21.3758 18.717 21.4041 18.5698 21.466 18.4961C21.6341 18.2965 21.8336 18.1225 22.0211 17.9383C22.3134 17.6519 22.6046 17.3644 22.8984 17.0795C23.0707 16.9122 23.2281 16.8964 23.3676 17.0256C23.5093 17.157 23.4971 17.3318 23.3271 17.4992C22.8659 17.9536 22.4044 18.4074 21.9382 18.857C21.8676 18.9251 21.7717 18.9685 21.657 19.043V19.0434Z" fill="#2B3562" stroke="#2B3562" stroke-width="0.3" stroke-linejoin="round"/>
<path d="M23.3882 20.7221C23.3049 20.6585 23.1907 20.6102 23.1479 20.5271C23.1089 20.4507 23.1379 20.3346 23.1555 20.2392C23.1628 20.1987 23.2151 20.1647 23.2499 20.1306C23.7076 19.6814 24.1657 19.2321 24.6242 18.7833C24.646 18.7619 24.667 18.7395 24.6907 18.72C24.8286 18.6077 24.9856 18.6114 25.1064 18.7286C25.2267 18.8454 25.2424 19.0086 25.1167 19.1344C24.6196 19.6308 24.116 20.1209 23.6109 20.609C23.562 20.6562 23.4837 20.6749 23.3886 20.7217L23.3882 20.7221Z" fill="#2B3562" stroke="#2B3562" stroke-width="0.3" stroke-linejoin="round"/>
</g>
<defs>
<filter id="filter0_i_404_13" x="0.302521" y="0.55188" width="38" height="42" filterUnits="userSpaceOnUse" color-interpolation-filters="sRGB">
<feFlood flood-opacity="0" result="BackgroundImageFix"/>
<feBlend mode="normal" in="SourceGraphic" in2="BackgroundImageFix" result="shape"/>
<feColorMatrix in="SourceAlpha" type="matrix" values="0 0 0 0 0 0 0 0 0 0 0 0 0 0 0 0 0 0 127 0" result="hardAlpha"/>
<feOffset dy="4"/>
<feGaussianBlur stdDeviation="10"/>
<feComposite in2="hardAlpha" operator="arithmetic" k2="-1" k3="1"/>
<feColorMatrix type="matrix" values="0 0 0 0 0.183333 0 0 0 0 0.726 0 0 0 0 0.8 0 0 0 0.15 0"/>
<feBlend mode="normal" in2="shape" result="effect1_innerShadow_404_13"/>
</filter>
<clipPath id="clip0_404_13">
<rect width="19" height="15" fill="white" transform="translate(9.80252 11.4899)"/>
</clipPath>
</defs>
</svg>
