<svg width="39" height="39" viewBox="0 0 39 39" fill="none" xmlns="http://www.w3.org/2000/svg">
<g filter="url(#filter0_i_404_12)">
<circle cx="19.3025" cy="19.5519" r="19" fill="#F0F4F5"/>
</g>
<g clip-path="url(#clip0_404_12)">
<path d="M24.8338 27.5519H12.8338C12.805 27.5423 12.7767 27.5285 12.7471 27.5235C12.2092 27.429 11.7946 27.1477 11.5313 26.6719C11.4259 26.4815 11.3771 26.2594 11.3025 26.0519C11.3025 23.0727 11.3025 20.0935 11.3025 17.1144C11.3121 17.0852 11.325 17.0569 11.3313 17.0269C11.4838 16.3135 11.9146 15.8606 12.6134 15.6619C12.7059 15.6356 12.8029 15.624 12.9084 15.6035C12.83 15.3865 12.7492 15.1835 12.6829 14.9765C12.5075 14.4285 12.77 13.8581 13.2967 13.6348C13.3971 13.5923 13.5004 13.556 13.6029 13.519C15.4088 12.8631 17.215 12.2073 19.0213 11.5519C19.1254 11.5519 19.2296 11.5519 19.3338 11.5519C19.3525 11.5606 19.37 11.5731 19.3896 11.5773C19.8071 11.6656 20.0821 11.9156 20.2267 12.3131C20.335 12.6106 20.4484 12.9073 20.5459 13.2085C20.5846 13.3277 20.6375 13.3665 20.7646 13.3656C21.6963 13.3594 22.6275 13.3606 23.5592 13.3627C24.2442 13.364 24.7059 13.826 24.7084 14.5077C24.7096 14.8302 24.7084 15.1531 24.7088 15.4756C24.7088 15.5206 24.7138 15.5652 24.7167 15.6073C25.7538 15.7277 26.3646 16.414 26.3646 17.4456C26.3646 17.9919 26.3663 18.5385 26.3629 19.0848C26.3625 19.176 26.3813 19.2219 26.4813 19.2435C26.7009 19.291 26.8984 19.3998 27.0263 19.5827C27.14 19.7448 27.2121 19.936 27.3025 20.1148V22.9898C27.2679 23.0806 27.2392 23.1744 27.1971 23.2615C27.0304 23.6085 26.7471 23.8069 26.365 23.8852C26.365 23.9485 26.365 24.0052 26.365 24.0615C26.365 24.664 26.3713 25.2669 26.3621 25.8694C26.3504 26.6098 25.8542 27.2573 25.1475 27.4715C25.0442 27.5027 24.9384 27.5256 24.8338 27.5523V27.5519ZM25.4259 19.2056C25.4259 18.5444 25.4363 17.909 25.4221 17.274C25.4125 16.8598 25.0629 16.5506 24.6309 16.5502C20.7663 16.5485 16.9021 16.5485 13.0375 16.5502C12.5729 16.5502 12.2409 16.8856 12.2409 17.351C12.2396 20.1685 12.2396 22.986 12.2409 25.8035C12.2409 26.2748 12.5771 26.6106 13.0504 26.6106C16.9046 26.6119 20.7584 26.6119 24.6125 26.6106C25.0938 26.6106 25.425 26.2752 25.4275 25.7931C25.4296 25.361 25.4279 24.9285 25.4279 24.4965C25.4279 24.3002 25.4279 24.1035 25.4279 23.8927C25.3454 23.8927 25.2792 23.8935 25.2129 23.8927C24.6092 23.8848 24.0017 23.9169 23.4029 23.8598C22.2667 23.7515 21.3809 22.739 21.3663 21.5948C21.3513 20.4185 22.1996 19.401 23.3396 19.2377C23.5242 19.2115 23.7129 19.2085 23.8996 19.2069C24.4034 19.2027 24.9071 19.2056 25.4263 19.2056H25.4259ZM19.6025 13.3531C19.5171 13.1131 19.4375 12.8831 19.3538 12.6552C19.2934 12.4915 19.2346 12.4652 19.0667 12.5265C17.2888 13.1731 15.5109 13.8198 13.7334 14.4677C13.5617 14.5302 13.5379 14.5869 13.6029 14.7665C13.6875 15.001 13.7825 15.2327 13.8567 15.4702C13.8934 15.5877 13.9521 15.6152 14.0679 15.6148C15.4271 15.6106 16.7863 15.6123 18.145 15.6123C18.1946 15.6123 18.2442 15.6123 18.3021 15.6123C18.3021 15.2144 18.2996 14.8402 18.3025 14.4656C18.3071 13.9152 18.6771 13.4719 19.2142 13.3777C19.335 13.3565 19.4604 13.3615 19.6021 13.3535L19.6025 13.3531ZM24.895 20.1431C24.7909 20.1431 24.6867 20.1423 24.5825 20.1431C24.2288 20.1465 23.8709 20.1177 23.5217 20.1602C22.7754 20.2506 22.255 20.909 22.3054 21.651C22.3546 22.3773 22.9634 22.9473 23.7113 22.9535C24.5184 22.9602 25.3254 22.9556 26.1325 22.9548C26.3167 22.9548 26.3646 22.9073 26.3646 22.7252C26.3654 21.939 26.3654 21.1527 26.3646 20.3665C26.3646 20.1881 26.3204 20.1435 26.1446 20.1427C25.7279 20.1415 25.3117 20.1423 24.895 20.1423V20.1431ZM19.2404 15.6006H23.7713C23.7713 15.2415 23.7717 14.8931 23.7713 14.5452C23.7713 14.3369 23.7342 14.2994 23.5267 14.2994C22.7567 14.299 21.9867 14.2994 21.2167 14.2994C20.6288 14.2994 20.0409 14.3002 19.4529 14.2985C19.3325 14.2985 19.2429 14.3327 19.2417 14.4681C19.2388 14.8419 19.2404 15.216 19.2404 15.6006Z" fill="#2B3562"/>
<path d="M23.7017 21.0818C23.9584 21.0785 24.1709 21.2822 24.1767 21.5372C24.1829 21.7952 23.9654 22.0181 23.7075 22.0177C23.4563 22.0177 23.2421 21.8035 23.24 21.5514C23.2384 21.2968 23.4459 21.0852 23.7013 21.0818H23.7017Z" fill="#2B3562"/>
</g>
<defs>
<filter id="filter0_i_404_12" x="0.302521" y="0.55188" width="38" height="42" filterUnits="userSpaceOnUse" color-interpolation-filters="sRGB">
<feFlood flood-opacity="0" result="BackgroundImageFix"/>
<feBlend mode="normal" in="SourceGraphic" in2="BackgroundImageFix" result="shape"/>
<feColorMatrix in="SourceAlpha" type="matrix" values="0 0 0 0 0 0 0 0 0 0 0 0 0 0 0 0 0 0 127 0" result="hardAlpha"/>
<feOffset dy="4"/>
<feGaussianBlur stdDeviation="10"/>
<feComposite in2="hardAlpha" operator="arithmetic" k2="-1" k3="1"/>
<feColorMatrix type="matrix" values="0 0 0 0 0.183333 0 0 0 0 0.726 0 0 0 0 0.8 0 0 0 0.15 0"/>
<feBlend mode="normal" in2="shape" result="effect1_innerShadow_404_12"/>
</filter>
<clipPath id="clip0_404_12">
<rect width="16" height="16" fill="white" transform="translate(11.3025 11.5519)"/>
</clipPath>
</defs>
</svg>
