<svg width="100" height="100" viewBox="0 0 100 100" fill="none" xmlns="http://www.w3.org/2000/svg">
<g id="Group 1261152854">
<path id="Ellipse 3" d="M99.4658 50.1468C99.4658 77.343 77.4189 99.39 50.2227 99.39C23.0265 99.39 0.979553 77.343 0.979553 50.1468C0.979553 22.9506 23.0265 0.903687 50.2227 0.903687C77.4189 0.903687 99.4658 22.9506 99.4658 50.1468ZM15.7525 50.1468C15.7525 69.1842 31.1853 84.617 50.2227 84.617C69.26 84.617 84.6929 69.1842 84.6929 50.1468C84.6929 31.1095 69.26 15.6766 50.2227 15.6766C31.1853 15.6766 15.7525 31.1095 15.7525 50.1468Z" fill="#D9D9D9"/>
<path id="Ellipse 5" d="M50.2227 0.903687C59.9621 0.903687 69.4827 3.79175 77.5807 9.20265C85.6787 14.6136 91.9903 22.3043 95.7174 31.3023C99.4445 40.3003 100.42 50.2014 98.5196 59.7537C96.6196 69.3059 91.9296 78.0802 85.0428 84.967C78.1561 91.8538 69.3818 96.5437 59.8295 98.4438C50.2773 100.344 40.3762 99.3686 31.3782 95.6415C22.3801 91.9144 14.6894 85.6028 9.27852 77.5048C3.86761 69.4068 0.979553 59.8862 0.979553 50.1468H15.7525C15.7525 56.9644 17.7741 63.6288 21.5618 69.2974C25.3494 74.966 30.7329 79.3842 37.0315 81.9931C43.3301 84.6021 50.2609 85.2847 56.9475 83.9547C63.634 82.6246 69.776 79.3417 74.5968 74.5209C79.4175 69.7002 82.7005 63.5582 84.0305 56.8716C85.3606 50.1851 84.678 43.2543 82.069 36.9557C79.46 30.657 75.0419 25.2735 69.3733 21.4859C63.7047 17.6983 57.0402 15.6766 50.2227 15.6766V0.903687Z" fill="#2B3562"/>
<path id="Ellipse 4" d="M95.2292 30.1643C91.3462 21.4186 84.9991 13.9936 76.964 8.79721C68.9288 3.60079 59.5537 0.858039 49.9848 0.904261L50.0562 15.677C56.7544 15.6447 63.317 17.5646 68.9416 21.2021C74.5662 24.8396 79.0091 30.0371 81.7272 36.1591L95.2292 30.1643Z" fill="#FFBE43"/>
</g>
</svg>
